# xmcd
#
# Track frame offsets: 
#        150
#        13874
#        25224
#        37854
#        50892
#        66083
#        77368
#        89348
#        101205
#        111599
#        126425
#        142207
#        155924
#        169946
#        183040
#        192496
#        208589
#        223572
#        237765
#        248138
#
# Disc length: 3692 seconds
#
# Revision: 1
# Processed by: cddbd v1.5.2PL0 Copyright (c) Steve Scherf et al.
# Submitted via: ExactAudioCopyFreeDBPlugin 1.0
#
DISCID=280e6a14
DTITLE=Alexis Korner - Easy Rider - Disc 2
DYEAR=2011
DGENRE=Blues
TTITLE0=Streamline Train
TTITLE1=Casey Jones
TTITLE2=Midnight Special
TTITLE3=KC Moan
TTITLE4=Take This Hammer
TTITLE5=Down By The Riverside
TTITLE6=Go Down Old Hannah
TTITLE7=Streamline Train
TTITLE8=Jolly Roving Tar
TTITLE9=Long John
TTITLE10=Git Along Little Dogies
TTITLE11=Jesse James
TTITLE12=John Crossed The Water
TTITLE13=The Boll Weevil
TTITLE14=Old Shoes And Leggings
TTITLE15=The Grey Goose
TTITLE16=Po' Lazarus
TTITLE17=Tee Roo
TTITLE18=Darlin' Corey
TTITLE19=Frankie
EXTD=
EXTT0=
EXTT1=
EXTT2=
EXTT3=
EXTT4=
EXTT5=
EXTT6=
EXTT7=
EXTT8=
EXTT9=
EXTT10=
EXTT11=
EXTT12=
EXTT13=
EXTT14=
EXTT15=
EXTT16=
EXTT17=
EXTT18=
EXTT19=
PLAYORDER=
